<?xml version="1.0" encoding="UTF-8" standalone="no"?>
<!-- Created with Inkscape (http://www.inkscape.org/) -->

<svg
   xmlns:dc="http://purl.org/dc/elements/1.1/"
   xmlns:cc="http://creativecommons.org/ns#"
   xmlns:rdf="http://www.w3.org/1999/02/22-rdf-syntax-ns#"
   xmlns:svg="http://www.w3.org/2000/svg"
   xmlns="http://www.w3.org/2000/svg"
   xmlns:sodipodi="http://sodipodi.sourceforge.net/DTD/sodipodi-0.dtd"
   xmlns:inkscape="http://www.inkscape.org/namespaces/inkscape"
   width="350"
   height="350"
   id="svg3794"
   version="1.1"
   inkscape:version="0.48.4 r9939"
   sodipodi:docname="New document 4">
  <defs
     id="defs3796" />
  <sodipodi:namedview
     id="base"
     pagecolor="#4358fe"
     bordercolor="#666666"
     borderopacity="1.0"
     inkscape:pageopacity="1"
     inkscape:pageshadow="2"
     inkscape:zoom="1.979899"
     inkscape:cx="214.71485"
     inkscape:cy="183.69099"
     inkscape:document-units="px"
     inkscape:current-layer="layer1"
     showgrid="false"
     inkscape:window-width="1920"
     inkscape:window-height="1017"
     inkscape:window-x="-8"
     inkscape:window-y="470"
     inkscape:window-maximized="1" />
  <metadata
     id="metadata3799">
    <rdf:RDF>
      <cc:Work
         rdf:about="">
        <dc:format>image/svg+xml</dc:format>
        <dc:type
           rdf:resource="http://purl.org/dc/dcmitype/StillImage" />
        <dc:title></dc:title>
      </cc:Work>
    </rdf:RDF>
  </metadata>
  <g
     inkscape:label="Layer 1"
     inkscape:groupmode="layer"
     id="layer1"
     transform="translate(0,-702.36214)">
    <path
       style="fill:#ffffff;fill-opacity:1;stroke:none"
       d="M 37.375 50 L 37.375 86.34375 L 318.6875 86.34375 L 318.6875 50 L 37.375 50 z M 37.375 96.4375 L 37.375 96.5625 L 19.125 156.5625 L 18.6875 156.5625 L 18.6875 205.5625 L 37.375 205.5625 L 37.375 319.6875 L 222.21875 319.6875 L 222.21875 204.03125 L 283.34375 204.03125 L 283.34375 319.6875 L 318.6875 319.6875 L 318.6875 205.5625 L 337.21875 205.5625 L 337.21875 156.5625 L 336.78125 156.5625 L 318.6875 97.09375 L 318.6875 96.4375 L 37.375 96.4375 z M 62.625 205.03125 L 179.8125 205.03125 L 179.8125 263.625 L 62.625 263.625 L 62.625 205.03125 z "
       transform="translate(0,702.36214)"
       id="rect3802" />
  </g>
</svg>
